<svg width="40" height="30" viewBox="0 0 40 30" fill="none" xmlns="http://www.w3.org/2000/svg">
<path d="M1.42857 5.5102H38.5714C39.3604 5.5102 40 4.96202 40 4.28571V1.22449C40 0.548189 39.3604 0 38.5714 0H1.42857C0.639554 0 0 0.548189 0 1.22449V4.28571C0 4.96202 0.639554 5.5102 1.42857 5.5102ZM1.42857 17.7551H38.5714C39.3604 17.7551 40 17.2069 40 16.5306V13.4694C40 12.7931 39.3604 12.2449 38.5714 12.2449H1.42857C0.639554 12.2449 0 12.7931 0 13.4694V16.5306C0 17.2069 0.639554 17.7551 1.42857 17.7551ZM1.42857 30H38.5714C39.3604 30 40 29.4518 40 28.7755V25.7143C40 25.038 39.3604 24.4898 38.5714 24.4898H1.42857C0.639554 24.4898 0 25.038 0 25.7143V28.7755C0 29.4518 0.639554 30 1.42857 30Z" fill="white"/>
</svg>
